<svg xmlns="http://www.w3.org/2000/svg" viewBox="0 0 512 512">
  <rect width="512" height="512" rx="96" fill="#111"/>
  <!-- Spectrogram-inspired bars -->
  <g opacity="0.9">
    <rect x="56"  y="320" width="28" height="80" rx="4" fill="#2d8a4e"/>
    <rect x="96"  y="260" width="28" height="140" rx="4" fill="#3ba356"/>
    <rect x="136" y="180" width="28" height="220" rx="4" fill="#4fc353"/>
    <rect x="176" y="140" width="28" height="260" rx="4" fill="#7dd65e"/>
    <rect x="216" y="80"  width="28" height="320" rx="4" fill="#e8c840"/>
    <rect x="256" y="60"  width="28" height="340" rx="4" fill="#f0a030"/>
    <rect x="296" y="100" width="28" height="300" rx="4" fill="#f15656"/>
    <rect x="336" y="160" width="28" height="240" rx="4" fill="#e8c840"/>
    <rect x="376" y="200" width="28" height="200" rx="4" fill="#4fc353"/>
    <rect x="416" y="280" width="28" height="120" rx="4" fill="#2d8a4e"/>
  </g>
  <!-- Waveform line overlay -->
  <polyline points="56,360 96,330 136,290 176,270 216,240 256,230 296,250 336,280 376,300 416,340 456,370"
    fill="none" stroke="#fff" stroke-width="4" stroke-linecap="round" stroke-linejoin="round" opacity="0.6"/>
</svg>
